# xmcd
#
# Track frame offsets:
#	150
#	20512
#	41546
#	57955
#	76754
#	105218
#	127230
#	152826
#	167871
#	185287
#	199746
#	218677
#	253018
#	268803
#	292225
#	312200
#
# Disc length: 4644 seconds
#
# Revision: 2
# Processed by: cddbd v1.5.2PL0 Copyright (c) Steve Scherf et al.
# Submitted via: EasyCDDAExtractor 15.3.0.1
#
DISCID=e3122210
DTITLE=Thalia - Viva Tour En Vivo
DYEAR=2013
DGENRE=Latin
TTITLE0=Atmosfera
TTITLE1=Que Sera De Ti
TTITLE2=Tomame O Dejame
TTITLE3=Habitame Siempre
TTITLE4=Medley (Como, Enseñame A Vivir)
TTITLE5=Con Los Años Que Me Quedan (Featuring Jesus Navarro (Reik), Samo (Cami
TTITLE5=la) Y Leonel Garcia)
TTITLE6=No Soy El Aire
TTITLE7=Hoy Ten Miedo De Mi
TTITLE8=Manias
TTITLE9=Mujeres (Featuring Maria Jose)
TTITLE10=Equivocada
TTITLE11=Medley Novelas (Quinceañera, Rosalinda, Marimar, Maria La Del Barrio)
TTITLE12=La Apuesta (Featuring Erik Rubin)
TTITLE13=Medley NY (No Me Enseñaste, Tu Y Yo, Entre El Mar Y Una Estrella, Pie
TTITLE13=l Morena)
TTITLE14=Amor A La Mexicana
TTITLE15=Medley Hits (Seduccion, A Quien Le Importa, Arrasando)
EXTD=
EXTT0=
EXTT1=
EXTT2=
EXTT3=
EXTT4=
EXTT5=
EXTT6=
EXTT7=
EXTT8=
EXTT9=
EXTT10=
EXTT11=
EXTT12=
EXTT13=
EXTT14=
EXTT15=
PLAYORDER=
